<svg width="10" height="15" viewBox="0 0 10 15" fill="none" xmlns="http://www.w3.org/2000/svg">
<g clip-path="url(#clip0_3_194)">
<path d="M2.75053 14.2486C3.99228 14.2486 5.00008 13.2408 5.00008 11.9991V9.74954H2.75053C1.50878 9.74954 0.500977 10.7573 0.500977 11.9991C0.500977 13.2408 1.50878 14.2486 2.75053 14.2486Z" fill="#0ACF83"/>
<path d="M0.500977 7.49998C0.500977 6.25823 1.50878 5.25043 2.75053 5.25043H5.00008V9.74953H2.75053C1.50878 9.74953 0.500977 8.74173 0.500977 7.49998Z" fill="#A259FF"/>
<path d="M0.502197 3.00089C0.502197 1.75914 1.51 0.751343 2.75175 0.751343H5.0013V5.25044H2.75175C1.51 5.25044 0.502197 4.24264 0.502197 3.00089Z" fill="#F24E1E"/>
<path d="M5 0.751343H7.24955C8.4913 0.751343 9.4991 1.75914 9.4991 3.00089C9.4991 4.24264 8.4913 5.25044 7.24955 5.25044H5V0.751343Z" fill="#FF7262"/>
<path d="M9.4991 7.49998C9.4991 8.74173 8.4913 9.74953 7.24955 9.74953C6.0078 9.74953 5 8.74173 5 7.49998C5 6.25823 6.0078 5.25043 7.24955 5.25043C8.4913 5.25043 9.4991 6.25823 9.4991 7.49998Z" fill="#1ABCFE"/>
</g>
<defs>
<clipPath id="clip0_3_194">
<rect width="9" height="13.4973" fill="white" transform="translate(0.5 0.751343)"/>
</clipPath>
</defs>
</svg>
