<svg width="1993" height="1089" viewBox="0 0 1993 1089" fill="none" xmlns="http://www.w3.org/2000/svg">
<rect x="324" y="651" width="265" height="265" rx="18" fill="#F5F5F5"/>
<g clip-path="url(#clip0_9_135)">
<path d="M400.292 802.72L395.812 798.28L410.532 783.8L395.812 769.32L400.292 764.88L419.212 783.8L400.292 802.72ZM449.257 802.72L444.777 798.28L459.497 783.8L444.777 769.32L449.257 764.88L468.177 783.8L449.257 802.72ZM498.223 802.72L493.743 798.28L508.463 783.8L493.743 769.32L498.223 764.88L517.143 783.8L498.223 802.72Z" fill="#DDDDDD"/>
</g>
<rect y="168" width="265" height="265" rx="18" fill="#F5F5F5"/>
<g clip-path="url(#clip1_9_135)">
<path d="M76.2915 319.72L71.8115 315.28L86.5316 300.8L71.8115 286.32L76.2915 281.88L95.2116 300.8L76.2915 319.72ZM125.257 319.72L120.777 315.28L135.497 300.8L120.777 286.32L125.257 281.88L144.177 300.8L125.257 319.72ZM174.223 319.72L169.743 315.28L184.463 300.8L169.743 286.32L174.223 281.88L193.143 300.8L174.223 319.72Z" fill="#DDDDDD"/>
</g>
<rect x="471" width="265" height="265" rx="18" fill="#F5F5F5"/>
<g clip-path="url(#clip2_9_135)">
<path d="M547.292 151.72L542.812 147.28L557.532 132.8L542.812 118.32L547.292 113.88L566.212 132.8L547.292 151.72ZM596.257 151.72L591.777 147.28L606.497 132.8L591.777 118.32L596.257 113.88L615.177 132.8L596.257 151.72ZM645.223 151.72L640.743 147.28L655.463 132.8L640.743 118.32L645.223 113.88L664.143 132.8L645.223 151.72Z" fill="#DDDDDD"/>
</g>
<rect x="1622" y="35" width="265" height="265" rx="18" fill="#F5F5F5"/>
<g clip-path="url(#clip3_9_135)">
<path d="M1698.29 186.72L1693.81 182.28L1708.53 167.8L1693.81 153.32L1698.29 148.88L1717.21 167.8L1698.29 186.72ZM1747.26 186.72L1742.78 182.28L1757.5 167.8L1742.78 153.32L1747.26 148.88L1766.18 167.8L1747.26 186.72ZM1796.22 186.72L1791.74 182.28L1806.46 167.8L1791.74 153.32L1796.22 148.88L1815.14 167.8L1796.22 186.72Z" fill="#DDDDDD"/>
</g>
<rect x="1728" y="824" width="265" height="265" rx="18" fill="#F5F5F5"/>
<g clip-path="url(#clip4_9_135)">
<path d="M1804.29 975.72L1799.81 971.28L1814.53 956.8L1799.81 942.32L1804.29 937.88L1823.21 956.8L1804.29 975.72ZM1853.26 975.72L1848.78 971.28L1863.5 956.8L1848.78 942.32L1853.26 937.88L1872.18 956.8L1853.26 975.72ZM1902.22 975.72L1897.74 971.28L1912.46 956.8L1897.74 942.32L1902.22 937.88L1921.14 956.8L1902.22 975.72Z" fill="#DDDDDD"/>
</g>
<rect x="1251" y="386" width="265" height="265" rx="18" fill="#F5F5F5"/>
<g clip-path="url(#clip5_9_135)">
<path d="M1327.29 537.72L1322.81 533.28L1337.53 518.8L1322.81 504.32L1327.29 499.88L1346.21 518.8L1327.29 537.72ZM1376.26 537.72L1371.78 533.28L1386.5 518.8L1371.78 504.32L1376.26 499.88L1395.18 518.8L1376.26 537.72ZM1425.22 537.72L1420.74 533.28L1435.46 518.8L1420.74 504.32L1425.22 499.88L1444.14 518.8L1425.22 537.72Z" fill="#DDDDDD"/>
</g>
<defs>
<clipPath id="clip0_9_135">
<rect width="122" height="39" fill="white" transform="translate(395.5 764)"/>
</clipPath>
<clipPath id="clip1_9_135">
<rect width="122" height="39" fill="white" transform="translate(71.5 281)"/>
</clipPath>
<clipPath id="clip2_9_135">
<rect width="122" height="39" fill="white" transform="translate(542.5 113)"/>
</clipPath>
<clipPath id="clip3_9_135">
<rect width="122" height="39" fill="white" transform="translate(1693.5 148)"/>
</clipPath>
<clipPath id="clip4_9_135">
<rect width="122" height="39" fill="white" transform="translate(1799.5 937)"/>
</clipPath>
<clipPath id="clip5_9_135">
<rect width="122" height="39" fill="white" transform="translate(1322.5 499)"/>
</clipPath>
</defs>
</svg>
