<svg width="22" height="23" viewBox="0 0 22 23" fill="none" xmlns="http://www.w3.org/2000/svg">
<g clip-path="url(#clip0_3_217)">
<path d="M15.58 19.4844V17.651C15.58 16.6786 15.1937 15.746 14.5061 15.0583C13.8184 14.3707 12.8858 13.9844 11.9133 13.9844H4.58C3.60754 13.9844 2.67491 14.3707 1.98727 15.0583C1.29964 15.746 0.91333 16.6786 0.91333 17.651V19.4844M21.08 19.4844V17.651C21.0794 16.8386 20.809 16.0494 20.3113 15.4073C19.8135 14.7652 19.1166 14.3066 18.33 14.1035M14.6633 3.10354C15.452 3.30548 16.1511 3.76418 16.6503 4.40733C17.1496 5.05047 17.4205 5.84147 17.4205 6.65563C17.4205 7.46978 17.1496 8.26078 16.6503 8.90392C16.1511 9.54707 15.452 10.0058 14.6633 10.2077M11.9133 6.65104C11.9133 8.67609 10.2717 10.3177 8.24666 10.3177C6.22162 10.3177 4.58 8.67609 4.58 6.65104C4.58 4.626 6.22162 2.98438 8.24666 2.98438C10.2717 2.98438 11.9133 4.626 11.9133 6.65104Z" stroke="black" stroke-width="1.5" stroke-linecap="round" stroke-linejoin="round"/>
</g>
<defs>
<clipPath id="clip0_3_217">
<rect width="22" height="22" fill="white" transform="translate(-0.00341797 0.234375)"/>
</clipPath>
</defs>
</svg>
